grf
version=1
nRows=17
nColumns=37
inDegrees=no
endheader
time	ground_force_1_vx	ground_force_1_vy	ground_force_1_vz	ground_force_1_px	ground_force_1_py	ground_force_1_pz	ground_moment_1_mx	ground_moment_1_my	ground_moment_1_mz	ground_force_2_vx	ground_force_2_vy	ground_force_2_vz	ground_force_2_px	ground_force_2_py	ground_force_2_pz	ground_moment_2_mx	ground_moment_2_my	ground_moment_2_mz	ground_force_3_vx	ground_force_3_vy	ground_force_3_vz	ground_force_3_px	ground_force_3_py	ground_force_3_pz	ground_moment_3_mx	ground_moment_3_my	ground_moment_3_mz	ground_force_4_vx	ground_force_4_vy	ground_force_4_vz	ground_force_4_px	ground_force_4_py	ground_force_4_pz	ground_moment_4_mx	ground_moment_4_my	ground_moment_4_mz
      4.40000000	      0.00000000	     -0.00000000	      0.00000000	      0.00000000	      0.00000000	      0.00000000	      0.00000000	      0.00000000	      0.00000000	    -14.44442368	     30.73656273	   -377.15817261	   -250.99910015	  -1074.54718770	      0.00000000	      0.00000000	      0.00000000	   9326.18996298	      3.11265977	    -34.54928616	   -432.98629761	   -270.31980822	   -704.24834136	      0.00000000	      0.00000000	     -0.00000000	  -7844.39420357	      0.00000000	     -0.00000000	      0.00000000	      0.00000000	      0.00000000	      0.00000000	      0.00000000	      0.00000000	      0.00000000
      4.41000000	      0.00000000	     -0.00000000	      0.00000000	      0.00000000	      0.00000000	      0.00000000	      0.00000000	      0.00000000	      0.00000000	    -14.98736572	     30.30619240	   -374.76071167	   -250.32131033	  -1072.87073343	      0.00000000	      0.00000000	      0.00000000	   9123.25791952	      3.98821432	    -34.70480000	   -432.29418945	   -270.69353655	   -703.30656045	      0.00000000	      0.00000000	     -0.00000000	  -8066.50330114	      0.00000000	     -0.00000000	      0.00000000	      0.00000000	      0.00000000	      0.00000000	      0.00000000	      0.00000000	      0.00000000
      4.42000000	      0.00000000	     -0.00000000	      0.00000000	      0.00000000	      0.00000000	      0.00000000	      0.00000000	      0.00000000	      0.00000000	    -14.36468315	     30.30970573	   -375.09127808	   -250.24512637	  -1073.66523472	      0.00000000	      0.00000000	      0.00000000	   9534.97483670	      4.07887441	    -34.71404683	   -432.55593872	   -270.70553603	   -702.38874637	      0.00000000	      0.00000000	     -0.00000000	  -8142.13905104	      0.00000000	     -0.00000000	      0.00000000	      0.00000000	      0.00000000	      0.00000000	      0.00000000	      0.00000000	      0.00000000
      4.43000000	      0.00000000	     -0.00000000	      0.00000000	      0.00000000	      0.00000000	      0.00000000	      0.00000000	      0.00000000	      0.00000000	    -14.64425182	     30.57001305	   -373.68475342	   -248.24861612	  -1073.66383381	      0.00000000	      0.00000000	      0.00000000	   9327.58374501	      4.25811460	    -35.23688544	   -430.82562256	   -270.16647242	   -702.84796965	      0.00000000	      0.00000000	     -0.00000000	  -8040.62695021	      0.00000000	     -0.00000000	      0.00000000	      0.00000000	      0.00000000	      0.00000000	      0.00000000	      0.00000000	      0.00000000
      4.44000000	      0.00000000	     -0.00000000	      0.00000000	      0.00000000	      0.00000000	      0.00000000	      0.00000000	      0.00000000	      0.00000000	    -15.44167042	     30.04354095	   -375.73770142	   -248.63334035	  -1075.08985481	      0.00000000	      0.00000000	      0.00000000	   9201.68177093	      3.82463220	    -35.06037173	   -429.09414673	   -269.83963058	   -702.75450276	      0.00000000	      0.00000000	     -0.00000000	  -7866.52926671	      0.00000000	     -0.00000000	      0.00000000	      0.00000000	      0.00000000	      0.00000000	      0.00000000	      0.00000000	      0.00000000
      4.45000000	      0.00000000	     -0.00000000	      0.00000000	      0.00000000	      0.00000000	      0.00000000	      0.00000000	      0.00000000	      0.00000000	    -15.43817329	     30.04644585	   -372.97055054	   -248.73705100	  -1073.37936705	      0.00000000	      0.00000000	      0.00000000	   9377.96947321	      4.25650146	    -35.23553885	   -428.36459351	   -270.53520468	   -703.68640683	      0.00000000	      0.00000000	     -0.00000000	  -7938.70529921	      0.00000000	     -0.00000000	      0.00000000	      0.00000000	      0.00000000	      0.00000000	      0.00000000	      0.00000000	      0.00000000
      4.46000000	      0.00000000	     -0.00000000	      0.00000000	      0.00000000	      0.00000000	      0.00000000	      0.00000000	      0.00000000	      0.00000000	    -15.08714294	     30.31036949	   -375.38845825	   -248.69097336	  -1074.59220271	      0.00000000	      0.00000000	      0.00000000	   9507.19717516	      4.61757303	    -35.40474741	   -426.28991699	   -270.48300995	   -703.54335947	      0.00000000	      0.00000000	     -0.00000000	  -7991.87843982	      0.00000000	     -0.00000000	      0.00000000	      0.00000000	      0.00000000	      0.00000000	      0.00000000	      0.00000000	      0.00000000
      4.47000000	      0.00000000	     -0.00000000	      0.00000000	      0.00000000	      0.00000000	      0.00000000	      0.00000000	      0.00000000	      0.00000000	    -16.06366730	     30.65364456	   -373.65292358	   -248.76964722	  -1074.49856299	      0.00000000	      0.00000000	      0.00000000	   9193.34209463	      4.60264565	    -35.33307306	   -425.95336914	   -271.12683381	   -702.97207058	      0.00000000	      0.00000000	     -0.00000000	  -8010.34279621	      0.00000000	     -0.00000000	      0.00000000	      0.00000000	      0.00000000	      0.00000000	      0.00000000	      0.00000000	      0.00000000
      4.48000000	      0.00000000	     -0.00000000	      0.00000000	      0.00000000	      0.00000000	      0.00000000	      0.00000000	      0.00000000	      0.00000000	    -16.41610336	     30.74998856	   -374.02301025	   -249.48252193	  -1073.70382946	      0.00000000	      0.00000000	      0.00000000	   9127.89521716	      3.99757575	    -35.58946644	   -424.58486938	   -269.77696003	   -703.35429337	      0.00000000	      0.00000000	     -0.00000000	  -7862.74117051	      0.00000000	     -0.00000000	      0.00000000	      0.00000000	      0.00000000	      0.00000000	      0.00000000	      0.00000000	      0.00000000
      4.49000000	      0.00000000	     -0.00000000	      0.00000000	      0.00000000	      0.00000000	      0.00000000	      0.00000000	      0.00000000	      0.00000000	    -17.12058258	     30.66346741	   -373.67471313	   -249.87877291	  -1073.45611178	      0.00000000	     -0.00000000	      0.00000000	   8773.39925830	      4.60761334	    -35.24434702	   -422.15588379	   -269.93347563	   -703.65830247	      0.00000000	      0.00000000	     -0.00000000	  -7769.42225097	      0.00000000	     -0.00000000	      0.00000000	      0.00000000	      0.00000000	      0.00000000	      0.00000000	      0.00000000	      0.00000000
      4.50000000	      0.00000000	     -0.00000000	      0.00000000	      0.00000000	      0.00000000	      0.00000000	      0.00000000	      0.00000000	      0.00000000	    -16.68484688	     29.94285774	   -372.23199463	   -248.84183169	  -1073.38010353	      0.00000000	     -0.00000000	      0.00000000	   9012.65035915	      3.91216732	    -35.32108341	   -420.01440430	   -270.28832957	   -703.54586429	      0.00000000	      0.00000000	     -0.00000000	  -7689.69397100	      0.00000000	     -0.00000000	      0.00000000	      0.00000000	      0.00000000	      0.00000000	      0.00000000	      0.00000000	      0.00000000
      4.51000000	      0.00000000	     -0.00000000	      0.00000000	      0.00000000	      0.00000000	      0.00000000	      0.00000000	      0.00000000	      0.00000000	    -17.04037285	     29.59362221	   -372.93493652	   -250.24447323	  -1074.86273237	      0.00000000	      0.00000000	      0.00000000	   9027.20650580	      4.35160906	    -34.71161690	   -418.26480103	   -270.80217765	   -704.51014195	      0.00000000	      0.00000000	     -0.00000000	  -7545.02110861	      0.00000000	     -0.00000000	      0.00000000	      0.00000000	      0.00000000	      0.00000000	      0.00000000	      0.00000000	      0.00000000
      4.52000000	      0.00000000	     -0.00000000	      0.00000000	      0.00000000	      0.00000000	      0.00000000	      0.00000000	      0.00000000	      0.00000000	    -17.03700829	     29.05870819	   -371.91156006	   -250.59203706	  -1072.38888263	      0.00000000	      0.00000000	      0.00000000	   8904.55874170	      5.23280273	    -34.35714004	   -417.58978271	   -271.74761404	   -704.10783827	      0.00000000	      0.00000000	     -0.00000000	  -7540.45908951	      0.00000000	     -0.00000000	      0.00000000	      0.00000000	      0.00000000	      0.00000000	      0.00000000	      0.00000000	      0.00000000
      4.53000000	      0.00000000	     -0.00000000	      0.00000000	      0.00000000	      0.00000000	      0.00000000	      0.00000000	      0.00000000	      0.00000000	    -16.23631287	     28.61705589	   -373.30712891	   -251.58842849	  -1071.69031422	      0.00000000	      0.00000000	      0.00000000	   8815.53355580	      5.05757703	    -33.91022536	   -415.12872314	   -272.30908900	   -704.42520850	      0.00000000	      0.00000000	     -0.00000000	  -7175.51566358	      0.00000000	     -0.00000000	      0.00000000	      0.00000000	      0.00000000	      0.00000000	      0.00000000	      0.00000000	      0.00000000
      4.54000000	      0.00000000	     -0.00000000	      0.00000000	      0.00000000	      0.00000000	      0.00000000	      0.00000000	      0.00000000	      0.00000000	    -16.05789185	     28.78624725	   -373.32638550	   -252.34622880	  -1071.32868893	      0.00000000	      0.00000000	      0.00000000	   8696.88493809	      6.03926370	    -33.03329902	   -412.01840210	   -273.23448828	   -705.58009922	      0.00000000	      0.00000000	     -0.00000000	  -7010.23746303	      0.00000000	     -0.00000000	      0.00000000	      0.00000000	      0.00000000	      0.00000000	      0.00000000	      0.00000000	      0.00000000
      4.55000000	      0.00000000	     -0.00000000	      0.00000000	      0.00000000	      0.00000000	      0.00000000	      0.00000000	      0.00000000	      0.00000000	    -16.32284546	     28.51994514	   -374.37780762	   -254.09036412	  -1071.78337528	      0.00000000	      0.00000000	      0.00000000	   8430.25984925	      7.09963564	    -32.32573762	   -410.96603394	   -273.31914917	   -705.18220741	      0.00000000	      0.00000000	     -0.00000000	  -6619.14340830	      0.00000000	     -0.00000000	      0.00000000	      0.00000000	      0.00000000	      0.00000000	      0.00000000	      0.00000000	      0.00000000
      4.56000000	      0.00000000	     -0.00000000	      0.00000000	      0.00000000	      0.00000000	      0.00000000	      0.00000000	      0.00000000	      0.00000000	    -15.07739353	     28.07280922	   -375.08032227	   -254.14652981	  -1072.91681339	      0.00000000	      0.00000000	      0.00000000	   8407.40967936	      8.69025235	    -32.14486007	   -409.19900513	   -274.11860220	   -705.44478265	      0.00000000	      0.00000000	     -0.00000000	  -6701.19524460	      0.00000000	     -0.00000000	      0.00000000	      0.00000000	      0.00000000	      0.00000000	      0.00000000	      0.00000000	      0.00000000
